<svg xmlns="http://www.w3.org/2000/svg" width="16" height="6" fill="none" viewBox="0 0 16 6"><g clip-path="url(#a)"><path fill="#fff" d="M-161-21h275v130h-275z"/><path fill="#F1F1F1" d="M136 6c-2.504 0-3.812-1.2-4.87-2.165-.946-.861-1.641-1.487-3.116-1.487-1.503 0-2.171.626-3.117 1.487C123.84 4.8 122.532 6 120.028 6c-2.505 0-3.812-1.2-4.87-2.165-.946-.861-1.641-1.487-3.116-1.487s-2.171.626-3.117 1.487C107.868 4.8 106.56 6 104.056 6c-2.505 0-3.813-1.2-4.87-2.165-.946-.861-1.642-1.487-3.116-1.487-1.503 0-2.17.626-3.117 1.487C91.896 4.8 90.588 6 88.083 6c-2.504 0-3.812-1.2-4.87-2.165-.945-.861-1.64-1.487-3.116-1.487-1.502 0-2.17.626-3.116 1.487C75.812 4.8 74.504 6 72 6s-3.812-1.2-4.87-2.165c-.946-.861-1.641-1.487-3.116-1.487-1.503 0-2.17.626-3.117 1.487C59.84 4.8 58.532 6 56.027 6c-2.504 0-3.811-1.2-4.869-2.165-.946-.861-1.642-1.487-3.116-1.487-1.503 0-2.17.626-3.117 1.487C43.812 4.8 42.505 6 40 6c-2.504 0-3.812-1.2-4.87-2.165-.946-.861-1.641-1.487-3.116-1.487-1.503 0-2.17.626-3.117 1.487C27.84 4.8 26.532 6 24.027 6c-2.504 0-3.811-1.2-4.869-2.165-.946-.861-1.642-1.487-3.116-1.487-1.475 0-2.17.626-3.117 1.487C11.84 4.8 10.505 6 8 6 5.496 6 4.188 4.8 3.13 3.835 2.184 2.974 1.49 2.348.014 2.348c-1.503 0-2.17.626-3.117 1.487C-4.16 4.8-5.468 6-7.973 6c-2.503 0-3.811-1.2-4.869-2.165-.946-.861-1.641-1.487-3.116-1.487-1.503 0-2.17.626-3.117 1.487C-20.132 4.8-21.44 6-23.945 6c-2.504 0-3.811-1.2-4.869-2.165-.946-.861-1.642-1.487-3.116-1.487-1.475 0-2.17.626-3.117 1.487C-36.104 4.8-37.412 6-39.917 6c-2.504 0-3.812-1.2-4.87-2.165-.945-.861-1.64-1.487-3.116-1.487-1.502 0-2.17.626-3.116 1.487C-52.077 4.8-53.384 6-55.89 6c-2.504 0-3.812-1.2-4.87-2.165-.945-.861-1.641-1.487-3.116-1.487-1.502 0-2.17.626-3.116 1.487C-68.05 4.8-69.356 6-71.861 6c-2.504 0-3.812-1.2-4.87-2.165-.946-.861-1.641-1.487-3.116-1.487-1.503 0-2.17.626-3.117 1.487C-84.02 4.8-85.328 6-87.832 6c-2.504 0-3.812-1.2-4.87-2.165-.946-.861-1.641-1.487-3.116-1.487s-2.17.626-3.117 1.487C-99.993 4.8-101.3 6-103.805 6c-2.505 0-3.812-1.2-4.87-2.165-.946-.861-1.642-1.487-3.116-1.487-1.503 0-2.171.626-3.117 1.487C-115.965 4.8-117.273 6-119.777 6c-2.505 0-3.813-1.2-4.87-2.165-.946-.861-1.642-1.487-3.116-1.487-1.503 0-2.171.626-3.117 1.487C-131.937 4.8-133.245 6-135.75 6c-2.504 0-3.812-1.2-4.869-2.165-.946-.861-1.642-1.487-3.117-1.487-1.502 0-2.17.626-3.116 1.487C-148.16 4.8-149.496 6-152 6c-2.504 0-3.812-1.2-4.87-2.165-.946-.861-1.641-1.487-3.116-1.487-1.503 0-2.171.626-3.117 1.487C-164.16 4.8-165.468 6-167.972 6c-2.505 0-3.812-1.2-4.87-2.165-.974-.861-1.669-1.487-3.144-1.487-1.503 0-2.171.626-3.117 1.487C-180.188 4.8-181.496 6-184 6V3.652c1.503 0 2.17-.626 3.117-1.487C-179.826 1.2-178.518 0-175.986 0c2.504 0 3.812 1.2 4.869 2.165.947.861 1.642 1.487 3.117 1.487 1.503 0 2.17-.626 3.117-1.487C-163.826 1.2-162.49 0-159.986 0c2.504 0 3.812 1.2 4.869 2.165.947.861 1.642 1.487 3.117 1.487 1.503 0 2.17-.626 3.117-1.487C-147.826 1.2-146.518 0-144.014 0c2.504 0 3.812 1.2 4.87 2.165.946.861 1.641 1.487 3.116 1.487 1.503 0 2.171-.626 3.117-1.487C-131.854 1.2-130.546 0-128.042 0c2.505 0 3.812 1.2 4.87 2.165.946.861 1.642 1.487 3.116 1.487 1.503 0 2.171-.626 3.117-1.487C-115.882 1.2-114.574 0-112.07 0c2.505 0 3.813 1.2 4.87 2.165.946.861 1.642 1.487 3.117 1.487 1.502 0 2.17-.626 3.116-1.487C-99.91 1.2-98.602 0-96.097 0c2.504 0 3.812 1.2 4.87 2.165.945.861 1.64 1.487 3.116 1.487 1.502 0 2.17-.626 3.116-1.487C-83.937 1.2-82.63 0-80.125 0c2.504 0 3.812 1.2 4.87 2.165.945.861 1.641 1.487 3.116 1.487s2.17-.626 3.116-1.487C-67.965 1.2-66.657 0-64.153 0s3.812 1.2 4.87 2.165c.946.861 1.641 1.487 3.116 1.487 1.503 0 2.17-.626 3.117-1.487C-51.993 1.2-50.685 0-48.18 0c2.504 0 3.811 1.2 4.869 2.165.946.861 1.641 1.487 3.116 1.487 1.503 0 2.17-.626 3.117-1.487C-36.021 1.2-34.713 0-32.208 0c2.504 0 3.811 1.2 4.869 2.165.946.861 1.642 1.487 3.116 1.487 1.503 0 2.17-.626 3.117-1.487C-20.05 1.2-18.741 0-16.236 0c2.504 0 3.812 1.2 4.869 2.165.946.861 1.642 1.487 3.117 1.487 1.502 0 2.17-.626 3.116-1.487C-4.077 1.2-2.769 0-.264 0c2.504 0 3.812 1.2 4.87 2.165.945.861 1.641 1.487 3.116 1.487 1.502 0 2.17-.626 3.116-1.487C11.896 1.2 13.204 0 15.708 0s3.812 1.2 4.87 2.165c.945.861 1.641 1.487 3.116 1.487 1.503 0 2.17-.626 3.116-1.487C27.868 1.2 29.176 0 31.68 0s3.812 1.2 4.87 2.165c.946.861 1.641 1.487 3.116 1.487 1.503 0 2.17-.626 3.117-1.487C44.173 1.2 45.482 0 48.013 0c2.505 0 3.813 1.2 4.87 2.165.947.861 1.642 1.487 3.117 1.487s2.17-.626 3.117-1.487C60.174 1.2 61.482 0 63.986 0c2.503 0 3.811 1.2 4.869 2.165.946.861 1.641 1.487 3.116 1.487s2.17-.626 3.117-1.487C76.174 1.2 77.482 0 80.014 0s3.812 1.2 4.87 2.165c.945.861 1.641 1.487 3.116 1.487s2.17-.626 3.117-1.487C92.174 1.2 93.481 0 95.987 0c2.503 0 3.811 1.2 4.869 2.165.946.861 1.641 1.487 3.116 1.487 1.503 0 2.171-.626 3.117-1.487C108.146 1.2 109.454 0 111.958 0c2.505 0 3.812 1.2 4.87 2.165.946.861 1.642 1.487 3.116 1.487 1.475 0 2.171-.626 3.117-1.487C124.118 1.2 125.426 0 127.93 0c2.505 0 3.813 1.2 4.87 2.165.946.861 1.642 1.487 3.116 1.487V6H136Z"/></g><defs><clipPath id="a"><path fill="#fff" d="M-161-21h275v130h-275z"/></clipPath></defs></svg>