<svg xmlns="http://www.w3.org/2000/svg" width="38" height="17" fill="none" viewBox="0 0 38 17"><g clip-path="url(#a)"><path fill="#fff" d="M-141-97h275V33h-275z"/><path fill="#F1F1F1" d="M559 17c-6.042 0-9.197-3.4-11.748-6.135-2.282-2.439-3.96-4.213-7.518-4.213-3.625 0-5.237 1.774-7.519 4.213C529.664 13.6 526.509 17 520.467 17c-6.042 0-9.197-3.4-11.748-6.135-2.282-2.439-3.96-4.213-7.518-4.213s-5.237 1.774-7.519 4.213C491.131 13.6 487.976 17 481.934 17c-6.042 0-9.197-3.4-11.748-6.135-2.282-2.439-3.96-4.213-7.518-4.213-3.625 0-5.236 1.774-7.519 4.213C452.598 13.6 449.443 17 443.401 17c-6.041 0-9.196-3.4-11.747-6.135-2.283-2.439-3.961-4.213-7.519-4.213-3.625 0-5.236 1.774-7.519 4.213C413.797 13.6 410.642 17 404.6 17s-9.197-3.4-11.748-6.135c-2.282-2.439-3.961-4.213-7.518-4.213-3.625 0-5.237 1.774-7.519 4.213C375.264 13.6 372.109 17 366.067 17c-6.042 0-9.197-3.4-11.748-6.135-2.282-2.439-3.96-4.213-7.518-4.213-3.625 0-5.236 1.774-7.519 4.213C336.597 13.6 333.442 17 327.4 17s-9.197-3.4-11.748-6.135c-2.282-2.439-3.961-4.213-7.518-4.213-3.625 0-5.237 1.774-7.519 4.213C298.064 13.6 294.909 17 288.867 17c-6.042 0-9.197-3.4-11.748-6.135-2.282-2.439-3.96-4.213-7.518-4.213s-5.236 1.774-7.519 4.213C259.464 13.6 256.242 17 250.2 17s-9.197-3.4-11.748-6.135c-2.282-2.439-3.961-4.213-7.518-4.213-3.625 0-5.237 1.774-7.519 4.213C220.864 13.6 217.709 17 211.667 17c-6.042 0-9.197-3.4-11.748-6.135-2.282-2.439-3.96-4.213-7.518-4.213-3.625 0-5.236 1.774-7.519 4.213C182.331 13.6 179.176 17 173.134 17c-6.041 0-9.197-3.4-11.748-6.135-2.282-2.439-3.96-4.213-7.518-4.213s-5.236 1.774-7.519 4.213C143.798 13.6 140.643 17 134.601 17c-6.041 0-9.196-3.4-11.747-6.135-2.283-2.439-3.961-4.213-7.519-4.213-3.625 0-5.236 1.774-7.519 4.213C105.265 13.6 102.11 17 96.068 17c-6.041 0-9.196-3.4-11.747-6.135-2.283-2.439-3.961-4.213-7.519-4.213-3.625 0-5.236 1.774-7.519 4.213C66.734 13.6 63.578 17 57.537 17c-6.042 0-9.197-3.4-11.748-6.135-2.283-2.439-3.96-4.213-7.519-4.213-3.625 0-5.236 1.774-7.518 4.213C28.2 13.6 25.044 17 19.003 17c-6.042 0-9.197-3.4-11.748-6.135-2.282-2.439-3.96-4.213-7.519-4.213-3.558 0-5.236 1.774-7.518 4.213C-10.333 13.6-13.488 17-19.53 17c-6.042 0-9.197-3.4-11.748-6.135-2.282-2.439-3.96-4.213-7.519-4.213-3.625 0-5.236 1.774-7.518 4.213C-48.866 13.6-52.021 17-58.063 17c-6.042 0-9.197-3.4-11.748-6.135-2.282-2.439-3.96-4.213-7.518-4.213-3.625 0-5.237 1.774-7.519 4.213C-87.399 13.6-90.554 17-96.596 17c-6.042 0-9.197-3.4-11.748-6.135-2.282-2.439-3.96-4.213-7.518-4.213-3.625 0-5.236 1.774-7.519 4.213C-126.536 13.6-129.758 17-135.8 17c-6.042 0-9.197-3.4-11.748-6.135-2.282-2.439-3.961-4.213-7.518-4.213-3.625 0-5.237 1.774-7.519 4.213C-165.136 13.6-168.291 17-174.333 17c-6.042 0-9.197-3.4-11.748-6.135-2.349-2.439-4.028-4.213-7.585-4.213-3.625 0-5.237 1.774-7.519 4.213C-203.803 13.6-206.958 17-213 17v-6.652c3.625 0 5.236-1.774 7.519-4.213C-202.93 3.4-199.775 0-193.666 0c6.041 0 9.196 3.4 11.747 6.135 2.283 2.439 3.961 4.213 7.519 4.213 3.625 0 5.236-1.774 7.519-4.213C-164.33 3.4-161.108 0-155.066 0c6.041 0 9.196 3.4 11.747 6.135 2.283 2.439 3.961 4.213 7.519 4.213 3.625 0 5.236-1.774 7.519-4.213C-125.73 3.4-122.575 0-116.534 0c6.042 0 9.197 3.4 11.748 6.135 2.283 2.439 3.961 4.213 7.519 4.213 3.625 0 5.236-1.774 7.518-4.213C-87.198 3.4-84.042 0-78 0c6.042 0 9.197 3.4 11.748 6.135 2.283 2.439 3.96 4.213 7.519 4.213 3.625 0 5.236-1.774 7.518-4.213C-48.665 3.4-45.51 0-39.468 0c6.042 0 9.197 3.4 11.748 6.135 2.282 2.439 3.96 4.213 7.519 4.213 3.625 0 5.236-1.774 7.518-4.213C-10.132 3.4-6.977 0-.935 0c6.042 0 9.197 3.4 11.748 6.135 2.282 2.439 3.96 4.213 7.518 4.213 3.625 0 5.237-1.774 7.52-4.213C28.4 3.4 31.555 0 37.597 0s9.197 3.4 11.748 6.135c2.282 2.439 3.96 4.213 7.518 4.213s5.236-1.774 7.519-4.213C66.933 3.4 70.089 0 76.131 0c6.041 0 9.197 3.4 11.748 6.135 2.282 2.439 3.96 4.213 7.518 4.213 3.625 0 5.236-1.774 7.519-4.213C105.467 3.4 108.622 0 114.664 0c6.041 0 9.197 3.4 11.747 6.135 2.283 2.439 3.961 4.213 7.519 4.213 3.625 0 5.236-1.774 7.519-4.213C144 3.4 147.155 0 153.197 0c6.041 0 9.196 3.4 11.747 6.135 2.283 2.439 3.961 4.213 7.519 4.213 3.625 0 5.236-1.774 7.519-4.213C182.533 3.4 185.688 0 191.729 0c6.042 0 9.197 3.4 11.748 6.135 2.283 2.439 3.961 4.213 7.519 4.213 3.625 0 5.236-1.774 7.518-4.213C221.065 3.4 224.221 0 230.262 0c6.042 0 9.197 3.4 11.748 6.135 2.283 2.439 3.961 4.213 7.519 4.213 3.625 0 5.236-1.774 7.518-4.213C259.598 3.4 262.753 0 268.795 0c6.042 0 9.197 3.4 11.748 6.135 2.282 2.439 3.961 4.213 7.519 4.213 3.625 0 5.236-1.774 7.518-4.213C298.131 3.4 301.286 0 307.328 0c6.042 0 9.197 3.4 11.748 6.135 2.282 2.439 3.961 4.213 7.518 4.213 3.625 0 5.237-1.774 7.519-4.213C337.47 3.4 340.625 0 346.734 0c6.041 0 9.196 3.4 11.747 6.135 2.283 2.439 3.961 4.213 7.519 4.213 3.558 0 5.236-1.774 7.519-4.213C376.07 3.4 379.225 0 385.266 0c6.042 0 9.197 3.4 11.748 6.135 2.283 2.439 3.961 4.213 7.519 4.213 3.558 0 5.236-1.774 7.518-4.213C414.67 3.4 417.825 0 423.934 0c6.108 0 9.196 3.4 11.747 6.135 2.283 2.439 3.961 4.213 7.519 4.213 3.558 0 5.236-1.774 7.519-4.213C453.27 3.4 456.425 0 462.466 0c6.042 0 9.197 3.4 11.748 6.135 2.283 2.439 3.961 4.213 7.519 4.213 3.625 0 5.236-1.774 7.518-4.213C491.802 3.4 494.958 0 500.999 0c6.042 0 9.197 3.4 11.748 6.135 2.283 2.439 3.961 4.213 7.519 4.213 3.558 0 5.236-1.774 7.518-4.213C530.335 3.4 533.49 0 539.532 0c6.042 0 9.197 3.4 11.748 6.135 2.282 2.439 3.961 4.213 7.519 4.213V17H559Z"/></g><defs><clipPath id="a"><path fill="#fff" d="M-141-97h275V33h-275z"/></clipPath></defs></svg>